<svg xmlns="http://www.w3.org/2000/svg" width="22" height="22" viewBox="0 0 92 99" fill="none">
<path fill-rule="evenodd" clip-rule="evenodd" d="M67.8754 4.44261C59.6891 7.07321 45.8514 13.8602 37.1259 19.5247C17.6339 32.1769 7.88936 45.5462 8.30997 59.0539L8.61484 68.7968L10.9127 59.35C13.6734 47.9917 16.4201 45.3104 16.4201 53.9719C16.4201 63.1868 21.075 59.654 22.7913 49.1375C23.6946 43.6015 26.5711 38.5137 30.2239 35.9942L36.1802 31.8827V37.5765C36.1802 42.0056 36.9339 42.75 39.5676 40.9319C44.3101 37.6583 48.3976 38.0149 46.4413 41.5341C44.0616 45.8132 49.4251 54.1824 54.5486 54.1824C61.3348 54.1824 62.8112 48.7575 58.893 38.2117C55.802 29.8795 55.9629 27.4263 60.0899 19.9631C62.7801 15.1014 69.3546 8.78212 75.1584 5.48121C87.596 -1.59608 86.9524 -1.68766 67.8754 4.44261ZM75.7004 52.072C75.7004 57.1423 74.6249 58.0796 68.8098 58.0796C65.0187 58.0796 61.1344 58.9564 60.1746 60.0282C59.181 61.1369 61.603 61.9767 65.795 61.9767C73.1175 61.9767 73.1485 62.0411 71.26 73.5572C68.7053 89.1518 71.0681 95.1028 79.8218 95.1028C83.5819 95.1028 87.3561 94.3253 88.2057 93.3744C89.0582 92.4235 87.5452 91.7668 84.8465 91.913C78.8027 92.2423 77.3151 86.49 79.8388 72.544C81.3151 64.3988 82.9157 62.0956 87.8642 60.9927C92.982 59.8528 93.2276 59.4611 89.2784 58.7265C86.656 58.2393 84.1154 55.5503 83.6327 52.7502C82.3426 45.252 75.7004 44.683 75.7004 52.072ZM31.1555 55.4684C29.3573 59.6092 28.5104 65.1783 29.2698 67.8459C30.4808 72.0958 30.3199 72.2127 27.9685 68.7968C25.8569 65.7297 25.2444 65.5777 25.0863 68.0817C24.979 69.8335 22.3481 71.7236 19.243 72.2848C16.1378 72.844 13.5972 74.3133 13.5972 75.5487C13.5972 76.7841 14.8675 77.2537 16.4201 76.5912C20.9226 74.6699 19.7115 77.4837 13.4053 83.5983C10.1928 86.7102 5.49274 89.257 2.96062 89.257C-0.570794 89.257 -0.870012 89.7929 1.6734 91.5486C5.89641 94.4637 14.3961 89.5396 19.3276 81.3224C24.6262 72.4914 30.5344 74.021 30.5344 84.2258C30.5344 94.5143 32.677 99 37.5916 99C42.5006 99 44.9142 94.1168 41.2529 91.5895C36.6375 88.4036 41.1259 72.1465 46.9127 71.0942C51.2967 70.2972 51.2854 70.2037 46.766 69.9972C42.9833 69.8237 41.8259 68.033 41.8259 62.3489C41.8259 58.2666 40.1604 53.3542 38.1251 51.4329C34.7575 48.2548 34.128 48.6191 31.1555 55.4684ZM54.3962 66.5131C53.7385 67.768 52.8634 74.7166 52.4512 81.9498C51.9121 91.4492 52.6855 95.1028 55.2346 95.1028C57.4731 95.1028 58.8366 92.0747 58.9608 86.8213C59.1556 78.7171 63.6976 67.5185 64.296 73.6683C64.5218 75.993 65.1711 75.8897 67.4717 73.1656C69.061 71.2813 69.6764 68.9761 68.8408 68.0427C66.2974 65.2017 55.6749 64.0773 54.3962 66.5131Z" fill="black"/>
</svg>
